<svg xmlns="http://www.w3.org/2000/svg" viewBox="0 0 140 100"><rect x="60" y="0" width="80" height="100" fill="none" stroke="currentColor" stroke-width="1" stroke-linejoin="round" stroke-linecap="round"/><rect x="0" y="15" width="40" height="70" fill="#ffffff" stroke="currentColor" stroke-width="1" stroke-linejoin="round" stroke-linecap="round"/><rect x="70" y="17.5" width="60" height="15" fill="none" stroke="currentColor" stroke-width="1" stroke-linejoin="round" stroke-linecap="round"/><rect x="70" y="42.5" width="60" height="15" fill="none" stroke="currentColor" stroke-width="1" stroke-linejoin="round" stroke-linecap="round"/><rect x="70" y="67.5" width="60" height="15" fill="none" stroke="currentColor" stroke-width="1" stroke-linejoin="round" stroke-linecap="round"/><path d="M 40 25 L 70 25 M 40 50 L 70 50 M 40 75 L 70 75 M 85 17.5 L 85 32.5 M 100 17.5 L 100 32.5 M 115 17.5 L 115 32.5 M 85 42.5 L 85 57.5 M 100 42.5 L 100 57.5 M 115 42.5 L 115 57.5 M 85 67.5 L 85 82.5 M 100 67.5 L 100 82.5 M 115 67.5 L 115 82.5 M 25 40 L 15 40 L 15 60 L 25 60 M 15 50 L 22 50" fill="none" stroke="currentColor" stroke-width="1" stroke-linejoin="round" stroke-linecap="round"/></svg>
